# xmcd
#
# Track frame offsets:
#	150
#	15960
#	31883
#	47556
#	71703
#	89395
#
# Disc length: 1411 seconds
# Revision: 0
# Processed by: cddbd v1.5.2PL0 Copyright (c) Steve Scherf et al.
# Submitted via: dBpowerAMP V12.0
#
DISCID=3f058106
DTITLE=Stump Whoopt Chitlins - Sadisfied
DYEAR=1900
DGENRE=
TTITLE0=Cruel Man
TTITLE1=Could Be
TTITLE2=Girls Night Out
TTITLE3=Into the Sun
TTITLE4=Where the Blues Come From
TTITLE5=Sad in Sadisfied
EXTD=
EXTT0=
EXTT1=
EXTT2=
EXTT3=
EXTT4=
EXTT5=
PLAYORDER=
